<svg width="36" height="36" viewBox="0 0 36 36" fill="none" xmlns="http://www.w3.org/2000/svg">
<path fill-rule="evenodd" clip-rule="evenodd" d="M18 3C12.195 3 7.5 7.695 7.5 13.5C7.5 21.375 18 33 18 33C18 33 28.5 21.375 28.5 13.5C28.5 7.695 23.805 3 18 3ZM10.5 13.5C10.5 9.36 13.86 6 18 6C22.14 6 25.5 9.36 25.5 13.5C25.5 17.82 21.18 24.285 18 28.32C14.88 24.315 10.5 17.775 10.5 13.5ZM14.25 13.5C14.25 11.4289 15.9289 9.75 18 9.75C19.3397 9.75 20.5777 10.4647 21.2476 11.625C21.9175 12.7853 21.9175 14.2147 21.2476 15.375C20.5777 16.5353 19.3397 17.25 18 17.25C15.9289 17.25 14.25 15.5711 14.25 13.5Z" fill="white"/>
</svg>
