<svg width="32" height="29" viewBox="0 0 32 29" fill="none" xmlns="http://www.w3.org/2000/svg">
<path fill-rule="evenodd" clip-rule="evenodd" d="M22.8194 15.9106C23.9444 15.9106 24.9344 15.333 25.4444 14.4595L30.8144 5.31627C31.3694 4.38645 30.6494 3.23122 29.5094 3.23122H7.30944L5.89945 0.413574H0.994446V3.23122H3.99445L9.39444 13.9242L7.36944 17.3617C6.27445 19.2495 7.71444 21.5459 9.99444 21.5459H27.9944V18.7282H9.99444L11.6444 15.9106H22.8194ZM7.00945 25.7723C7.00945 24.2226 8.34445 22.9547 9.99445 22.9547C11.6445 22.9547 12.9945 24.2226 12.9945 25.7723C12.9945 27.322 11.6445 28.59 9.99445 28.59C8.34445 28.59 7.00945 27.322 7.00945 25.7723ZM22.0095 25.7723C22.0095 24.2226 23.3444 22.9547 24.9944 22.9547C26.6444 22.9547 27.9944 24.2226 27.9944 25.7723C27.9944 27.322 26.6444 28.59 24.9944 28.59C23.3444 28.59 22.0095 27.322 22.0095 25.7723ZM26.9594 6.04885H8.73443L12.2894 13.093H22.8194L26.9594 6.04885Z" fill="#030303"/>
</svg>
